# xmcd
#
# Track frame offsets:
#	150
#	16733
#	44350
#
# Disc length: 1053 seconds
#
# Revision: 0
# Processed by: cddbd v1.5.2PL0 Copyright (c) Steve Scherf et al.
# Submitted via: audiograbber 1.83.01
#
DISCID=18041b03
DTITLE=New California Republic - Ecstasy [CDS)
DYEAR=2000
DGENRE=Trance
TTITLE0=Ecstasy (Radio Edit)
TTITLE1=Ecstasy (Original Version)
TTITLE2=Ecstasy (Liquid Groove Remix)
EXTD=TR.
EXTT0=
EXTT1=
EXTT2=
PLAYORDER=
